<svg width="128" height="128" xmlns="http://www.w3.org/2000/svg" xml:space="preserve" version="1.1">

 <g>
  <title>Layer 1</title>
  <g stroke="null" id="svg_1"/>
  <g stroke="null" id="svg_2"/>
  <g stroke="null" id="svg_3"/>
  <g stroke="null" id="svg_4"/>
  <g stroke="null" id="svg_5"/>
  <g stroke="null" id="svg_6"/>
  <g stroke="null" id="svg_7"/>
  <g stroke="null" id="svg_8"/>
  <g stroke="null" id="svg_9"/>
  <g stroke="null" id="svg_10"/>
  <g stroke="null" id="svg_11"/>
  <g stroke="null" id="svg_12"/>
  <g stroke="null" id="svg_13"/>
  <g stroke="null" id="svg_14"/>
  <g stroke="null" id="svg_15"/>
  <g id="svg_18">
   <g stroke="null" id="XMLID_468_">
    <path stroke="null" fill="#444444" d="m65.89425,1.41779c-34.69247,0 -62.91691,27.66818 -62.91691,61.67687c0,10.99966 2.98032,21.76681 8.62612,31.19028l-10.80625,31.48481c-0.20129,0.58702 -0.05157,1.23606 0.38803,1.67807c0.31733,0.32 0.74778,0.49253 1.18739,0.49253c0.16844,0 0.33812,-0.02506 0.50365,-0.07723l33.23849,-10.43236c9.09567,4.80005 19.37581,7.33379 29.77989,7.33379c34.68914,0.00041 62.91067,-27.6649 62.91067,-61.66989c0,-34.00869 -28.22153,-61.67687 -62.91109,-61.67687zm0,110.49938c-9.7898,0 -19.27184,-2.79212 -27.42259,-8.07485c-0.27408,-0.17787 -0.59224,-0.26907 -0.91248,-0.26907c-0.16927,0 -0.33896,0.02547 -0.50407,0.07723l-16.65044,5.22768l5.37505,-15.66292c0.17384,-0.50691 0.08692,-1.06599 -0.23332,-1.49814c-6.20685,-8.37678 -9.48786,-18.27388 -9.48786,-28.62244c0,-26.92425 22.35613,-48.82908 49.83528,-48.82908c27.47582,0 49.82946,21.90483 49.82946,48.82908c0.00042,26.92096 -22.3528,48.82251 -49.82905,48.82251z" id="XMLID_470_"/>
   </g>
   <text stroke="null" transform="matrix(3.57015 0 0 3.13202 -386.025 58.9184)" xml:space="preserve" text-anchor="start" font-family="Noto Sans JP" font-size="24" stroke-width="0" fill="#444444" id="svg_16" y="9.51474" x="120.14262">P</text>
  </g>
 </g>
</svg>